<?xml version="1.0" encoding="utf-8" ?><svg xmlns="http://www.w3.org/2000/svg" xmlns:xlink="http://www.w3.org/1999/xlink" width="1024" height="1024" viewBox="0 0 1024 1024"><path d="M358.341 354.719C364.686 354.433 371.043 354.521 377.378 354.981C420.365 357.885 446.654 376.437 473.906 407.645C474.281 418.053 474.177 433.893 473.706 444.269C459.794 449.074 440.322 452.736 425.337 456.971C421.445 439.481 416.81 425.087 401.589 413.591C387.039 403.218 367.802 399.884 350.505 402.321C286.05 411.401 266.421 479.7 275.215 536.022C283.727 590.531 321.578 631.076 379.657 620.953C397.405 617.86 412.878 610.189 423.517 595.138C424.348 574.113 423.537 548.599 423.7 527.117C414.256 527.001 340.275 527.308 338.742 526.585L338.497 525.125L338.599 510.661C382.928 510.527 428.776 510.027 473.001 510.698C472.993 547.186 472.003 587.818 473.363 623.929C472.695 624.928 471.962 625.882 471.169 626.784C466.854 631.693 461.024 635.818 455.836 639.801C402.116 681.038 314.346 680.829 263.39 634.749C200.522 577.897 194.239 465.711 251.931 402.808C281.605 370.455 315.306 357.099 358.341 354.719Z"/><path d="M675.329 354.711C704.323 353.071 730.559 357.735 756.707 371.841C779.039 383.89 801.598 405.111 810.738 429.589C811.883 432.656 811.239 436.649 809.591 439.399C808.289 441.573 805.681 442.703 803.46 443.821C797.724 446.181 791.241 447.988 785.284 449.899C777.755 452.315 770.056 455.019 762.451 457.044C761.109 457.402 757.132 458.026 756.292 456.887C753.834 453.55 752.271 448.04 750.669 444.432C744.767 431.144 736.951 420.73 724.696 412.834C706.981 401.421 683.307 399.748 663.15 404.124C642.959 408.507 626.527 421.774 615.66 439.429C596.328 470.836 594.067 513.396 601.715 548.849C607.144 574.016 621.568 596.868 643.777 610.296C662.34 621.52 687.678 624.441 708.748 619.369C727.432 614.872 740.215 603.325 749.947 587.041C751.58 584.093 752.844 581.328 754.216 578.235C757.416 571.021 757.014 560.556 768.124 564.129C779.545 567.862 791.337 571.235 802.812 574.713C806.664 575.88 811.815 579.335 811.513 583.651C810.551 597.397 797.641 616.71 789.581 626.345C767.123 653.192 735.19 667.651 700.705 669.911C661.263 672.749 622.715 664.793 591.948 638.598C557.448 609.528 542.837 572.484 538.796 528.734C530.569 439.676 581.311 361.95 675.329 354.711Z"/><path d="M471.512 355.033C479.568 354.795 547.889 354.408 551.242 355.623C552.69 361.84 541.309 364.613 540.719 371.565C540.246 377.135 540.47 382.663 540.476 388.253L540.509 425.576C540.512 431.643 540.726 440.108 540.193 445.987C539.837 449.911 535.925 458.68 534.651 463.29C529.958 479.997 527.835 497.321 528.356 514.666C528.802 530.175 531.03 545.581 534.995 560.581C536.301 565.519 540.009 573.333 540.399 577.771C540.804 582.381 540.73 589.89 540.757 594.722L540.814 630.845C540.818 636.982 540.689 643.493 541.01 649.607C541.375 656.559 545.974 659.91 550.914 663.994C552.693 666.081 552.938 667.549 551.818 669.939C548.523 672.298 486.619 670.232 477.944 670.834C475.928 670.973 472.816 670.87 471.341 669.269C470.393 665.32 473.139 662.799 476.01 660.479C485.557 652.762 482.895 641.79 482.919 630.105L482.863 584.513L482.612 473.28L482.796 405.518C482.788 395.962 482.658 385.436 482.47 375.983C482.216 363.189 468.047 362.812 471.512 355.033Z"/></svg>