<?xml version="1.0" encoding="utf-8" ?><svg xmlns="http://www.w3.org/2000/svg" xmlns:xlink="http://www.w3.org/1999/xlink" width="1024" height="1024" viewBox="0 0 1024 1024"><path fill="#242E48" d="M0 0L1024 0L1024 1024L0 1024L0 0Z"/><path fill="#FEFEFD" d="M755.259 83.7432C758.194 85.4172 771.343 108.355 774.319 113.239C781.397 124.718 788.652 136.086 796.083 147.34C796.67 175.456 796.272 204.814 796.499 233.051C803.297 236.56 809.25 239.803 815.672 244.19C846.932 265.55 864.414 305.256 874.026 340.761C876.812 351.052 878.825 363.401 880.747 373.985C889.152 383.238 898.747 390.388 908.018 400.816C905.048 403.503 900.828 407.596 897.542 409.605L897.503 485.423L891.835 481.547L891.701 416.98C888.873 413.884 887.341 412.518 883.978 410.133C883.79 432.263 884.153 454.542 883.748 476.649C881.863 475.633 879.924 474.641 878.023 473.645L878.104 421.707C875.384 419.829 871.458 417.044 868.44 419.443C867.092 424.206 868.009 459.872 868.016 467.132L862.438 464.469C862.411 448.116 862.657 430.775 862.113 414.503C865.494 413.266 867.888 412.625 871.386 411.735C875.177 413.056 875.51 413.264 878.873 415.336L879.044 405.863C877.337 404.109 874.741 401.881 872.866 400.184C864.05 392.908 835.007 366.983 826.751 363.929C793.749 351.55 758.553 346.087 723.351 347.881C708.537 348.73 703.712 349.799 689.586 353.891L663.374 361.534C644.675 367.07 616.665 376.506 599.295 384.297C599.198 396.335 599.249 408.373 599.45 420.409L592.759 426.203C592.328 412.918 592.585 398.173 592.541 384.775C587.94 379.032 583.588 373.093 579.498 366.975C587.525 362.72 601.391 356.96 609.817 353.343C619.096 322.028 630.634 294.926 650.21 268.637C665.788 247.717 682.283 235.562 706.668 226.14C706.732 204.344 706.945 179.791 706.273 158.175C718.653 137.843 732.491 118.183 745.434 98.1978C748.57 93.3554 751.824 88.3677 755.259 83.7432Z"/><path fill="#242E48" d="M732.69 327.22C736.938 327.008 741.19 326.913 745.442 326.936C772.953 327.079 793.841 331.93 820.015 339.432C837.572 344.464 834.684 343.226 848.691 355.255C859.09 364.198 869.424 373.215 879.692 382.307C885.491 387.379 894.275 394.226 899.393 399.399C893.284 400.878 893.278 400.786 892.636 407.027C878.818 399.743 860.893 381.694 848.329 371.535C834.531 360.377 837.281 360.447 819.723 355.207C806.641 351.21 793.429 347.653 780.109 344.543C761.925 340.113 724.891 340.89 705.857 343.17C701.598 343.681 683.312 349.144 678.482 350.525C650.306 358.438 622.578 367.868 595.42 378.772C592.998 375.73 590.805 372.926 588.539 369.77C600.724 363.813 611.489 359.846 624.167 355.125C642.889 348.063 661.859 341.68 681.041 335.988C686.988 334.212 692.949 332.476 698.87 330.617C709.555 327.264 721.537 327.553 732.69 327.22Z"/><path fill="#242E48" d="M749.04 229.302C752.474 229.743 755.082 236.393 756.331 239.388C767.298 265.672 771.122 294.649 775.238 322.638C762.638 321.072 749.941 320.43 737.248 320.717C728.018 321.139 718.47 321.442 709.302 322.352C714.823 296.535 728.114 245.909 749.04 229.302Z"/><path fill="#242E48" d="M759.512 230.325C763.626 230.559 782.46 233.799 784.947 236.25C810.965 261.887 824.273 301.516 831.604 336.306C824.346 334.601 815.551 331.856 808.183 329.871C799.103 327.49 789.977 325.292 780.809 323.277C778.134 299.426 774.576 275.953 767.628 252.909C765.281 245.123 761.978 237.97 759.512 230.325Z"/><path fill="#242E48" d="M736.002 229.212C737.549 229.041 737.603 228.914 739.048 229.378C738.98 230.436 731.477 241.259 730.222 243.42C726.922 249.173 723.954 255.109 721.332 261.199C713.018 281.01 706.972 301.698 703.309 322.868C689.749 326.116 670.163 332.411 657.156 336.789C655.946 337.138 656.288 337.078 655.074 337.146L654.786 336.129C656.282 331.518 657.345 327.146 658.97 322.484C670.808 288.52 689.125 252.522 718.754 230.744C724.493 230.126 730.243 229.615 736.002 229.212Z"/><path fill="#242E48" d="M799.395 242.013C803.718 243.656 810.499 247.979 814.23 250.755C849.315 276.856 866.932 326.493 873.419 368.174C870.766 366.521 864.783 360.929 862.244 358.787C854.28 352.068 846.115 344.15 837.884 337.871C832.605 309.542 825.204 286.719 811.258 261.131C807.72 254.641 803.122 248.469 799.395 242.013Z"/><path fill="#242E48" d="M705.438 233.021L705.592 233.14C705.596 234.147 702.594 236.672 701.607 237.651C694.461 244.643 688.015 252.316 682.36 260.561C667.227 282.607 653.804 314.038 647.691 340.028C637.776 343.384 627.915 346.894 618.111 350.558L617.575 350.149C617.121 347.044 622.706 333.109 624.095 329.474C633.996 303.564 649.054 276.128 668.873 256.531C678.785 246.73 692.765 238.554 705.438 233.021Z"/><path fill="#242E48" d="M769.327 143.688C770.708 143.528 771.628 143.233 772.8 143.902C773.46 149.498 773.053 165.476 773.038 171.667L772.903 226.07L763.141 224.27L763.245 193.621C763.274 184.411 764.077 168.282 755.184 162.267C753.313 161.018 751.009 160.599 748.818 161.109C744.934 162.045 742.133 166.288 740.042 169.445C735.635 179.085 736.415 186.755 736.465 197.054L736.627 222.966C732.553 222.977 728.091 223.313 723.994 223.539L723.979 155.926C738.391 150.491 754.046 145.671 769.327 143.688Z"/><path fill="#242E48" d="M755.299 95.7516C756.171 96.2786 780.855 135.26 783.935 139.748C768.132 134.615 757.314 138.654 741.558 143.24C734.068 145.134 725.625 148.562 718.312 151.34C721.204 145.459 727.276 136.733 731.123 131.011L755.299 95.7516Z"/><path fill="#242E48" d="M779.007 145.332C782.656 146.519 786.291 147.746 789.912 149.013C790.571 175.752 790.164 204.137 790.166 230.947L778.906 227.199L779.007 145.332Z"/><path fill="#242E48" d="M749.513 166.716C759.095 170.731 757.359 188.386 757.276 197.018L757.14 223.112L749.875 222.966L742.566 222.816L742.482 200.292C742.446 188.282 741.003 176.258 749.513 166.716Z"/><path fill="#242E48" d="M717.101 159.387L717.532 159.51C718.261 160.655 718.587 218.047 717.794 223.764C716.599 224.715 715.149 224.627 713.555 224.782C712.653 223.523 712.742 169.643 712.522 162.63L717.101 159.387Z"/><path fill="#FEFEFD" d="M511.47 127.42C513.575 128.083 523.61 134.096 526.162 135.587L561.228 156.253L639.518 202.622C649.956 208.799 672.049 221.083 681.392 227.89C679.837 229.496 678.735 230.299 676.951 231.679C622.032 198.784 566.909 166.231 511.586 134.021C499 140.677 486.622 148.191 474.2 155.236L372.226 213.874L266.676 274.376C235.952 291.916 203.227 310.341 173.019 328.628L172.957 456.968C150.473 469.812 127.304 482.002 104.838 494.95C94.2503 501.053 83.2049 506.938 72.8711 513.439L131.675 543.812C145.079 550.813 159.177 558.591 172.709 565.141L172.982 694.533C178.457 697.244 184.445 701.051 189.841 704.171L216.003 719.189L294.342 764.792L511.432 890.728C517.77 887.588 526.685 882.126 533.076 878.471L575.658 854.174C632.721 821.958 689.516 789.267 746.036 756.107C764.871 764.667 784.835 771.316 804.316 778.639L890.429 810.669C910.018 817.79 929.527 824.427 948.994 831.947L948.999 573.498C944.704 571.238 939.961 568.442 935.692 566.04L935.445 810.49L929.645 808.523C928.92 727.002 929.567 644.315 929.935 562.735C919.718 556.308 907.275 549.538 896.658 543.345L830.838 504.309C821.787 498.899 812.293 493.745 803.412 488.162L803.505 762.653L797.584 762.437L797.51 485.198L785.262 478.686L785.03 755.987L779.261 754.2L779.463 610.875L779.494 474.019C758.188 483.404 737.398 491.847 716.174 500.977C686.741 513.862 657.226 526.56 627.631 539.071C627.494 536.906 627.161 534.472 626.915 532.295C661.821 516.824 697.143 502.441 732.245 487.451C726.885 484.816 721.661 482.137 716.091 479.97C708.113 483.14 698.66 487.894 690.788 491.478C669.384 501.224 648.269 511.861 626.917 521.698L626.842 514.406C652.08 501.176 683.149 488.261 709.404 476.1C705.024 473.284 701.294 470.952 696.725 468.397C693.364 470.426 683.14 474.438 679.109 476.17L653.228 487.553C646.226 490.55 636.936 494.169 630.407 497.718C633.721 487.206 640.842 474.246 649.848 467.583C650.059 472.405 650.017 477.703 650.077 482.564C654.308 480.914 658.85 478.779 663.029 476.919L663.037 457.675C664.645 456.614 666.78 455.567 668.512 454.653C668.617 461.238 668.558 467.956 668.563 474.553C674.376 472.227 680.142 469.782 685.855 467.22C686.492 462.91 686.557 459.332 686.694 455.001C691.99 457.328 696.818 460.415 701.913 463.066C714.559 469.648 727.829 477.91 740.731 483.802C758.763 475.565 776.977 467.733 795.359 460.312C804.647 465.056 816.695 473.156 826.043 478.66C854.426 495.398 882.698 512.322 910.858 529.434C925.198 538.103 941.806 548.99 956.421 556.716C959.735 553.554 963.108 550.454 966.536 547.417C936.95 530.785 905.445 511.33 876.35 493.627L791.306 441.882C784.426 445.242 773.746 451.419 767.189 455.489L774.776 442.198C780.242 439.31 785.775 436.547 791.368 433.913C852.73 472.007 914.495 509.45 976.65 546.235C969.359 553.256 961.645 559.883 954.382 566.986C955.112 579.776 954.823 595.285 954.85 608.251L954.899 677.915C954.91 731.46 955.745 787.126 954.868 840.521L834.868 796.105C806.703 785.843 773.475 774.477 746.29 762.636C725.254 774.317 705.173 786.834 684.341 798.672L511.681 896.876C499.549 890.764 483.801 881.054 471.844 874.042L418.52 843.08L248.973 744.532C222.834 729.435 194.126 711.6 167.573 697.545L167.324 568.587C147.799 558.982 127.215 547.735 107.825 537.593L60.5218 513.423L167.465 453.647L167.494 324.863C174.789 320.103 187.262 313.566 195.18 308.84C229.05 288.967 263.093 269.39 297.306 250.113L429.873 174.062C456.941 158.287 484.141 142.739 511.47 127.42Z"/><path fill="#242E48" d="M795.489 466.929C798.249 468.116 804.379 472.13 807.145 473.783C815.018 478.485 822.858 483.678 830.778 488.302C871.165 512.064 911.299 536.253 951.173 560.867L947.908 565.533L944.299 563.615L827.727 495.197C814.493 487.504 798.357 479.23 785.756 471.48C788.446 469.912 792.539 468.235 795.489 466.929Z"/><path fill="#FEFEFD" d="M355.886 400.711C387.956 397.899 421.039 409.467 447.301 427.418C441.29 438.3 433.898 450.008 427.413 460.799C402.459 442.114 364.329 431.736 334.953 445.756C272.34 475.639 274.925 584.437 342.026 607.951C367.962 617.039 395.884 610.789 420.054 599.411C419.703 581.884 420.004 563.448 420.018 545.852L353.155 546.01C353.129 539.938 352.617 516.535 353.35 511.738C354.777 510.752 354.908 511.108 357.024 511.063L457.645 511.034L457.699 620.494C430.373 634.159 407.653 646.632 376.292 649.414C344.832 652.538 312.065 645.401 287.184 624.781C234.588 581.191 235.548 488.217 277.754 437.877C298.409 413.24 324.612 403.233 355.886 400.711Z"/><path fill="#FEFEFD" d="M680.917 400.708C709.152 397.034 749.939 406.742 771.322 425.898C763.102 434.385 755.237 449.042 749.855 459.407C737.125 449.185 725.754 441.875 709.508 438.846C664.208 430.391 624.968 456.886 617.295 502.58C611.252 538.192 619.737 579.47 652.865 599.26C683.313 617.45 714.727 613.608 742.68 593.451L747.543 589.461C752.761 596.442 763.427 612.517 767.745 619.906C747.755 637.666 730.453 646.374 703.507 649.579C673.239 653.216 639.235 645.782 615.287 626.443C562.495 583.81 558.378 492.091 600.725 440.999C621.872 415.485 648.416 404.095 680.917 400.708Z"/><path fill="#FEFEFD" d="M511.467 162.404C516.243 163.217 638.611 237.203 652.685 245.967C648.487 249.105 646.696 250.985 643.116 254.823L511.997 177.033L210.658 350.55C211.576 379.029 210.784 411.41 210.881 440.227L210.949 673.434C219.056 678.663 230.148 684.515 238.716 689.55C261.24 702.91 283.86 716.108 306.575 729.143L511.887 846.639C522.543 841.042 534.368 833.9 544.92 827.792L598.472 796.933C635.251 776.095 676.125 752.151 713.605 733.091C718.069 735.358 721.55 736.791 726.162 738.654C722.209 741.455 717.676 743.992 713.511 746.501C684.745 763.835 655.148 780.056 625.876 796.524L536.418 847.525C528.113 852.206 519.562 857.56 511.263 861.976C443.407 821.792 375.213 782.182 306.689 743.15L232.549 699.796C221.875 693.54 209.289 685.595 198.559 679.829L198.407 462.444L198.211 383.105C198.218 370.734 197.821 355.133 198.475 343.012C202.585 339.585 216.845 331.619 222.005 328.625L274.392 298.645L436.815 205.296C461.461 191.133 487.393 177.369 511.467 162.404Z"/><path fill="#FEFEFD" d="M493.49 404.514L536.477 404.665C537.18 485.125 537.203 565.589 536.545 646.049L493.295 646.225L493.49 404.514Z"/><path fill="#FEFEFD" d="M827.014 642.133C837.68 646.163 853.618 653.981 864.345 658.967C864.427 694.73 864.32 730.493 864.024 766.255C862.484 766.343 831.251 753.203 826.822 751.546C827.129 739.464 826.894 726.341 826.911 714.193L827.014 642.133Z"/><path fill="#242E48" d="M832.508 650.718C840.527 653.86 851.202 658.668 858.935 662.386L858.962 758.791C850.084 755.167 841.24 751.462 832.429 747.678L832.508 650.718Z"/><path fill="#FEFEFD" d="M826.5 527.221C836.181 531.346 853.669 540.434 863.122 545.503C863.3 571.493 863.263 597.484 863.011 623.473C850.78 617.977 838.874 610.996 826.518 605.715L826.5 527.221Z"/><path fill="#242E48" d="M832.042 536.369C840.525 540.634 849.149 544.717 857.475 549.27L857.652 614.502C849.242 610.855 840.429 606.389 832.136 602.363L832.042 536.369Z"/><path fill="#FEFEFD" d="M587.875 436.525L588.121 436.71C587.693 438.381 586.732 439.356 585.739 440.719C534.527 510.981 558.377 633.639 649.741 656.991C677.013 663.961 699.158 661.206 725.994 656.66C722.171 658.212 718.911 659.336 714.983 660.627C695.791 666.127 674.732 666.826 655 664.797C572.002 656.263 533.39 562.328 555.045 489.262C560.368 471.301 572.879 448.172 587.875 436.525Z"/><path fill="#FEFEFD" d="M886.033 671.822C894.792 675.479 904.273 679.892 913.006 683.765C913.117 705.008 913.118 726.252 913.007 747.494C912.991 756.367 913.538 771.659 912.772 779.893C904.226 777.723 895.333 773.762 886.617 772.131C885.76 739.914 885.999 704.149 886.033 671.822Z"/><path fill="#242E48" d="M891.616 680.183C896.407 682.134 902.731 685.306 907.551 687.543L907.493 772.149C902.166 770.43 897.476 768.91 892.033 767.559L891.616 680.183Z"/><path fill="#FEFEFD" d="M248.959 457.43C248.873 460.13 242.558 473.939 241.396 477.772C220.7 546.029 241.114 628.862 314.784 654.36C349.934 666.526 382.952 663.373 417.897 652.672C421.222 651.648 426.364 649.469 429.585 649.02C426.312 650.928 424.14 651.856 420.634 653.349C410.013 657.99 398.958 661.567 387.632 664.027C316.883 679.897 251.234 648.442 230.802 576.118C219.058 534.547 225.664 493.758 248.959 457.43Z"/><path fill="#FEFEFD" d="M479.919 417.903C481.096 419.099 480.834 443.856 480.852 446.935L480.908 504.147L480.96 657.793C495.865 658.105 518.07 658.506 532.778 657.578C528.551 658.879 526.747 659.394 522.408 659.988C506.642 662.397 487.853 662.031 471.832 662.067L471.913 425.159L479.919 417.903Z"/><path fill="#FEFEFD" d="M884.538 561.393C894.017 565.787 903.43 570.322 912.774 574.996C913.811 596.184 913.043 624.228 913.008 645.932C903.631 642.001 894.013 637.397 884.706 633.175C884.467 609.248 884.411 585.32 884.538 561.393Z"/><path fill="#242E48" d="M889.8 570.087C895.347 572.167 902.113 575.664 907.484 578.307L907.497 637.77C901.734 634.73 896.028 632.379 890.042 629.82C889.924 610.116 889.532 589.74 889.8 570.087Z"/><path fill="#FEFEFD" d="M340.28 513.363C341.607 514.603 341 553.311 340.985 558.388C363.338 558.216 385.693 558.244 408.046 558.471L408.003 590.558L399.683 593.682C398.728 592.01 399.139 565.744 399.151 561.612L332.63 562.007C332.357 548.545 332.574 534.328 332.561 520.806C334.669 519.168 338.252 515.389 340.28 513.363Z"/><path fill="#FEFEFD" d="M751.463 507.036C752.618 508.774 751.943 567.226 751.908 574.977L746.525 572.592L746.507 515.374C739.107 519.103 730.142 522.218 722.692 525.952C721.863 526.368 722.103 526.643 721.929 527.875C721.972 545.54 721.891 563.205 721.685 580.869C720.255 582.006 718.141 583.241 716.556 584.234C716.326 563.482 716.531 542.413 716.551 521.637C726.396 518.276 741.894 511.455 751.463 507.036Z"/><path fill="#FEFEFD" d="M751.901 660.034C752.972 661.679 752.424 719.519 752.396 726.008L726.511 715.565C723.253 714.244 719.097 712.739 715.965 711.196C715.211 710.824 715.175 709.365 714.942 708.263L714.265 707.916C709.38 709.758 698.545 716.531 692.643 719.479C696.595 715.53 700.36 712.078 704.49 708.338C708.042 705.185 711.878 702.05 715.525 698.982L715.548 680.526C717.265 679.422 719.133 678.357 720.898 677.313L720.986 707.13C727.697 710.293 739.387 714.437 746.713 717.497L746.628 663.193L751.901 660.034Z"/><path fill="#FEFEFD" d="M814.834 383.045C819.99 382.875 823.086 383.845 826.897 387.554C833.18 393.669 831.566 404.558 831.519 412.801L831.321 444.157L825.523 440.878L825.506 397.375C825.408 395.65 824.765 394.065 823.766 392.658C822.462 390.819 820.415 389.41 818.145 389.139C815.993 388.882 813.049 389.832 811.511 391.382C807.933 394.987 809.487 424.548 809.494 430.717L804.023 427.635C803.944 419.482 802.261 396.045 805.718 389.669C807.84 385.755 810.768 384.351 814.834 383.045Z"/><path fill="#FEFEFD" d="M685.01 533.455C685.29 533.501 685.938 533.791 686.234 533.91C686.784 538.671 686.631 554.7 686.538 559.913C686.376 569.116 687.074 583.861 686.143 592.309L685.361 592.89C683.762 592.868 683.212 592.991 681.805 592.204C680.134 589.529 680.986 580.487 680.972 576.887L680.957 541.262L671.196 545.527L657.823 551.224C657.882 560.958 657.856 570.692 657.744 580.425L652.467 575.168L652.417 546.938C661.215 544.322 675.715 537.277 685.01 533.455Z"/><path fill="#FEFEFD" d="M172.399 483.928L173.024 484.144C173.738 485.772 173.471 488.664 173.439 490.566C160.446 496.55 147.102 504.77 133.99 511.297C145.078 517.574 162.223 526.368 173.672 531.344L173.56 538.579L166.772 535.114C153.203 527.492 135.821 519.143 121.619 511.689C138.613 502.559 155.54 493.305 172.399 483.928Z"/><path fill="#FEFEFD" d="M363.766 451.719C381.099 450.739 402.589 459.082 416.881 468.388L410.958 475.774C406.548 472.865 403.286 470.887 398.694 468.304C378.639 458.125 360.172 453.139 337.857 457.202C347.037 453.378 353.914 452.513 363.766 451.719Z"/><path fill="#FEFEFD" d="M745.659 366.161C766.938 367.615 762.323 390.768 761.966 406.243L756.726 402.411C756.526 396.262 757.725 381.802 755.321 377.387C747.212 367.826 737.009 371.599 738.097 384C738.359 386.995 738.178 391.251 738.236 394.387L732.187 392.041C731.942 380.264 730.991 368.828 745.659 366.161Z"/><path fill="#FEFEFD" d="M338.338 468.7C339.66 468.39 339.176 468.383 340.52 468.726C339.393 470.374 335.602 472.653 333.838 473.904C322.645 481.846 314.787 492.278 307.54 503.729L306.584 504.871L306.218 504.598C307.05 496.76 311.217 485.183 316.158 478.91C323.017 470.202 328.497 469.974 338.338 468.7Z"/><path fill="#FEFEFD" d="M670.931 376.709C676.157 375.976 688.061 378.847 687.056 385.143C684.055 386.461 678.194 382.972 675.017 382.51C673.518 382.292 670.471 382.408 668.875 382.445C667.347 382.484 667.875 382.289 666.64 383.053C666.685 389.028 661.83 389.858 657.019 389.367L656.471 388.518C655.775 378.806 663.197 377.163 670.931 376.709Z"/><path fill="#FEFEFD" d="M614.366 391.018C614.896 391.107 614.56 391.011 615.286 391.516C615.726 395.392 615.492 402.327 615.472 406.445L609.298 410.421C609.028 410.397 608.824 410.155 608.599 410.004C608.192 405.496 608.455 398.061 608.481 393.334C610.408 392.535 612.418 391.78 614.366 391.018Z"/><path fill="#FEFEFD" d="M709.085 450.994C714.504 450.677 733.821 462.001 738.673 465.608C733.146 464.457 714.984 454.238 709.085 450.994Z"/></svg>